<mxfile host="app.diagrams.net" modified="2023-03-01T13:15:13.670Z" agent="5.0 (Windows)" etag="6esReV_uGXX1Kcn04tk-" version="20.8.23" type="github">
  <diagram id="C5RBs43oDa-KdzZeNtuy" name="Page-1">
    <mxGraphModel dx="701" dy="591" grid="1" gridSize="10" guides="1" tooltips="1" connect="1" arrows="1" fold="1" page="1" pageScale="1" pageWidth="827" pageHeight="1169" math="0" shadow="0">
      <root>
        <mxCell id="WIyWlLk6GJQsqaUBKTNV-0" />
        <mxCell id="WIyWlLk6GJQsqaUBKTNV-1" parent="WIyWlLk6GJQsqaUBKTNV-0" />
        <mxCell id="OM4ICPF-TvOZbnwHoT-p-6" style="edgeStyle=orthogonalEdgeStyle;rounded=0;orthogonalLoop=1;jettySize=auto;html=1;entryX=0.5;entryY=0;entryDx=0;entryDy=0;" edge="1" parent="WIyWlLk6GJQsqaUBKTNV-1" source="OM4ICPF-TvOZbnwHoT-p-7" target="OM4ICPF-TvOZbnwHoT-p-10">
          <mxGeometry relative="1" as="geometry" />
        </mxCell>
        <mxCell id="OM4ICPF-TvOZbnwHoT-p-7" value="Start" style="ellipse;whiteSpace=wrap;html=1;" vertex="1" parent="WIyWlLk6GJQsqaUBKTNV-1">
          <mxGeometry x="354" y="40" width="120" height="80" as="geometry" />
        </mxCell>
        <mxCell id="OM4ICPF-TvOZbnwHoT-p-8" value="Stop" style="ellipse;whiteSpace=wrap;html=1;" vertex="1" parent="WIyWlLk6GJQsqaUBKTNV-1">
          <mxGeometry x="230" y="430" width="120" height="80" as="geometry" />
        </mxCell>
        <mxCell id="OM4ICPF-TvOZbnwHoT-p-9" style="edgeStyle=orthogonalEdgeStyle;rounded=0;orthogonalLoop=1;jettySize=auto;html=1;entryX=0.5;entryY=0;entryDx=0;entryDy=0;" edge="1" parent="WIyWlLk6GJQsqaUBKTNV-1" source="OM4ICPF-TvOZbnwHoT-p-10" target="OM4ICPF-TvOZbnwHoT-p-13">
          <mxGeometry relative="1" as="geometry" />
        </mxCell>
        <mxCell id="OM4ICPF-TvOZbnwHoT-p-10" value="tablica = [3,1,2]&lt;br&gt;suma = 0&lt;br&gt;i = 0" style="rounded=0;whiteSpace=wrap;html=1;" vertex="1" parent="WIyWlLk6GJQsqaUBKTNV-1">
          <mxGeometry x="354" y="160" width="120" height="60" as="geometry" />
        </mxCell>
        <mxCell id="OM4ICPF-TvOZbnwHoT-p-11" style="edgeStyle=orthogonalEdgeStyle;rounded=0;orthogonalLoop=1;jettySize=auto;html=1;entryX=0.5;entryY=0;entryDx=0;entryDy=0;" edge="1" parent="WIyWlLk6GJQsqaUBKTNV-1" source="OM4ICPF-TvOZbnwHoT-p-13" target="OM4ICPF-TvOZbnwHoT-p-19">
          <mxGeometry relative="1" as="geometry" />
        </mxCell>
        <mxCell id="OM4ICPF-TvOZbnwHoT-p-12" style="edgeStyle=orthogonalEdgeStyle;rounded=0;orthogonalLoop=1;jettySize=auto;html=1;entryX=0.5;entryY=0;entryDx=0;entryDy=0;" edge="1" parent="WIyWlLk6GJQsqaUBKTNV-1" source="OM4ICPF-TvOZbnwHoT-p-13" target="OM4ICPF-TvOZbnwHoT-p-17">
          <mxGeometry relative="1" as="geometry" />
        </mxCell>
        <mxCell id="OM4ICPF-TvOZbnwHoT-p-13" value="i &amp;lt; dlugosc tablicy" style="rhombus;whiteSpace=wrap;html=1;" vertex="1" parent="WIyWlLk6GJQsqaUBKTNV-1">
          <mxGeometry x="366" y="250" width="96" height="100" as="geometry" />
        </mxCell>
        <mxCell id="OM4ICPF-TvOZbnwHoT-p-14" value="Tak" style="text;html=1;align=center;verticalAlign=middle;resizable=0;points=[];autosize=1;strokeColor=none;fillColor=none;" vertex="1" parent="WIyWlLk6GJQsqaUBKTNV-1">
          <mxGeometry x="470" y="270" width="40" height="30" as="geometry" />
        </mxCell>
        <mxCell id="OM4ICPF-TvOZbnwHoT-p-15" value="Nie" style="text;html=1;align=center;verticalAlign=middle;resizable=0;points=[];autosize=1;strokeColor=none;fillColor=none;" vertex="1" parent="WIyWlLk6GJQsqaUBKTNV-1">
          <mxGeometry x="310" y="270" width="40" height="30" as="geometry" />
        </mxCell>
        <mxCell id="OM4ICPF-TvOZbnwHoT-p-16" style="edgeStyle=orthogonalEdgeStyle;rounded=0;orthogonalLoop=1;jettySize=auto;html=1;entryX=0.5;entryY=0;entryDx=0;entryDy=0;" edge="1" parent="WIyWlLk6GJQsqaUBKTNV-1" source="OM4ICPF-TvOZbnwHoT-p-17" target="OM4ICPF-TvOZbnwHoT-p-8">
          <mxGeometry relative="1" as="geometry" />
        </mxCell>
        <mxCell id="OM4ICPF-TvOZbnwHoT-p-17" value="Pokaz suma" style="rounded=0;whiteSpace=wrap;html=1;" vertex="1" parent="WIyWlLk6GJQsqaUBKTNV-1">
          <mxGeometry x="230" y="340" width="120" height="60" as="geometry" />
        </mxCell>
        <mxCell id="OM4ICPF-TvOZbnwHoT-p-18" style="edgeStyle=orthogonalEdgeStyle;rounded=0;orthogonalLoop=1;jettySize=auto;html=1;entryX=0.5;entryY=1;entryDx=0;entryDy=0;" edge="1" parent="WIyWlLk6GJQsqaUBKTNV-1" source="OM4ICPF-TvOZbnwHoT-p-19" target="OM4ICPF-TvOZbnwHoT-p-13">
          <mxGeometry relative="1" as="geometry" />
        </mxCell>
        <mxCell id="OM4ICPF-TvOZbnwHoT-p-19" value="suma += tablica[i]&lt;br&gt;i++" style="rounded=0;whiteSpace=wrap;html=1;" vertex="1" parent="WIyWlLk6GJQsqaUBKTNV-1">
          <mxGeometry x="470" y="340" width="120" height="60" as="geometry" />
        </mxCell>
      </root>
    </mxGraphModel>
  </diagram>
</mxfile>
